<svg xmlns="http://www.w3.org/2000/svg" viewBox="0 0 495.13 81.53"><defs><style>.cls-1{font-size:62px;font-family:Dubai-Light, Dubai;font-weight:300;letter-spacing:0.07em;}.cls-1,.cls-3{fill:#231f20;}.cls-2{letter-spacing:0.1em;}</style></defs><title>Logo_1</title><g id="Layer_2" data-name="Layer 2"><g id="logo"><text class="cls-1" transform="translate(0 51.09)"><tspan xml:space="preserve">F  XY </tspan><tspan class="cls-2" x="174.34" y="0">GLAMOUR</tspan></text><path class="cls-3" d="M52.39,8.75,39.77,20.8V38L52.39,50.38,65.14,38.21V21Zm4.42,15.68-3-12.13,7.3,12.13Zm4.66,1v8.21H57V25.46Zm-9-14.23,3.09,12.62-3.09-2.23-3.14,2.23ZM56,25.46v8.46l-3.56,2.64-3.53-2.64V25.46l3.53-2.6Zm-7.87-1H43.86l7.26-12.38Zm-.21,1v8.21H43.53V25.46Zm2.35-13.41L42.91,24.1l-2.15-3ZM40.56,22.66l1.93,2.47V34l-1.93,2.52Zm.2,15.26L42.82,35,50,46.91Zm3.1-3.22h4.08l3.18,12Zm5.48.54,3.14,2.18,3.3-2.18L52.48,48Zm7.39-.54H61.1l-7.3,12Zm-1.9,12.21L62,35l2.26,2.85Zm9.4-10.35L62.38,34V25.09l1.85-2.43ZM62.05,23.85l-7.22-11.8,9.4,9Z"/></g></g></svg>